{
  "accessors": [
    {
      "bufferView": 1,
      "componentType": 5126,
      "count": 7818,
      "max": [
        1.0684399604797363,
        1.0319499969482422,
        0.97026997804641724
      ],
      "min": [
        -1.0684399604797363,
        -1.0038800239562988,
        -0.54250001907348633
      ],
      "type": "VEC3"
    },
    {
      "bufferView": 1,
      "byteOffset": 93816,
      "componentType": 5126,
      "count": 7818,
      "max": [
        0.99998515844345093,
        0.99995237588882446,
        0.99998599290847778
      ],
      "min": [
        -0.99998515844345093,
        -0.99999850988388062,
        -0.99991989135742188
      ],
      "type": "VEC3"
    },
    {
      "bufferView": 0,
      "componentType": 5125,
      "count": 46896,
      "max": [
        7817
      ],
      "min": [
        0
      ],
      "type": "SCALAR"
    },
    {
      "bufferView": 1,
      "byteOffset": 187632,
      "componentType": 5126,
      "count": 964,
      "max": [
        4.2220602035522461,
        0.43564999103546143,
        1.7719000577926636
      ],
      "min": [
        -4.2220602035522461,
        -1.0898400545120239,
        -0.22032999992370605
      ],
      "type": "VEC3"
    },
    {
      "bufferView": 1,
      "byteOffset": 199200,
      "componentType": 5126,
      "count": 964,
      "max": [
        0.98062390089035034,
        0.99798715114593506,
        0.99682235717773438
      ],
      "min": [
        -0.98062390089035034,
        -0.99798715114593506,
        -0.99682331085205078
      ],
      "type": "VEC3"
    },
    {
      "bufferView": 0,
      "byteOffset": 187584,
      "componentType": 5125,
      "count": 5760,
      "max": [
        963
      ],
      "min": [
        0
      ],
      "type": "SCALAR"
    },
    {
      "bufferView": 1,
      "byteOffset": 210768,
      "componentType": 5126,
      "count": 329,
      "max": [
        0.87158000469207764,
        0.9170299768447876,
        0.43039000034332275
      ],
      "min": [
        -1.0492700338363647,
        -0.916920006275177,
        -0.17722000181674957
      ],
      "type": "VEC3"
    },
    {
      "bufferView": 1,
      "byteOffset": 214716,
      "componentType": 5126,
      "count": 329,
      "max": [
        0.91086333990097046,
        0.85990816354751587,
        1
      ],
      "min": [
        -0.86562073230743408,
        -0.9335443377494812,
        -0.56037044525146484
      ],
      "type": "VEC3"
    },
    {
      "bufferView": 0,
      "byteOffset": 210624,
      "componentType": 5125,
      "count": 540,
      "max": [
        328
      ],
      "min": [
        0
      ],
      "type": "SCALAR"
    },
    {
      "bufferView": 1,
      "byteOffset": 218664,
      "componentType": 5126,
      "count": 49,
      "max": [
        0.79135000705718994,
        0.83407002687454224,
        -0.17722000181674957
      ],
      "min": [
        -0.87655001878738403,
        -0.83382999897003174,
        -0.39772000908851624
      ],
      "type": "VEC3"
    },
    {
      "bufferView": 1,
      "byteOffset": 219252,
      "componentType": 5126,
      "count": 49,
      "max": [
        0.84049946069717407,
        0.82019674777984619,
        -0.54181253910064697
      ],
      "min": [
        -0.79987764358520508,
        -0.82019674777984619,
        -1
      ],
      "type": "VEC3"
    },
    {
      "bufferView": 0,
      "byteOffset": 212784,
      "componentType": 5125,
      "count": 240,
      "max": [
        48
      ],
      "min": [
        0
      ],
      "type": "SCALAR"
    },
    {
      "bufferView": 1,
      "byteOffset": 219840,
      "componentType": 5126,
      "count": 194,
      "max": [
        0.45572000741958618,
        0.29172998666763306,
        -0.31700000166893005
      ],
      "min": [
        -0.46492001414299011,
        -0.80106997489929199,
        -1.6257100105285645
      ],
      "type": "VEC3"
    },
    {
      "bufferView": 1,
      "byteOffset": 222168,
      "componentType": 5126,
      "count": 194,
      "max": [
        0.99988609552383423,
        0.95003962516784668,
        0.99951726198196411
      ],
      "min": [
        -0.97947466373443604,
        -0.99665236473083496,
        -0.98018419742584229
      ],
      "type": "VEC3"
    },
    {
      "bufferView": 0,
      "byteOffset": 213744,
      "componentType": 5125,
      "count": 432,
      "max": [
        193
      ],
      "min": [
        0
      ],
      "type": "SCALAR"
    }
  ],
  "asset": {
    "extras": {
      "author": "ff69 (https://sketchfab.com/ff69)",
      "license": "CC-BY-4.0 (http://creativecommons.org/licenses/by/4.0/)",
      "source": "https://sketchfab.com/models/e74dacf54f4b4f0ea62096719d8f6512",
      "title": "Poring"
    },
    "generator": "Sketchfab-3.18.7",
    "version": "2.0"
  },
  "bufferViews": [
    {
      "buffer": 0,
      "byteLength": 215472,
      "byteOffset": 0,
      "name": "floatBufferViews",
      "target": 34963
    },
    {
      "buffer": 0,
      "byteLength": 224496,
      "byteOffset": 215472,
      "byteStride": 12,
      "name": "floatBufferViews",
      "target": 34962
    }
  ],
  "buffers": [
    {
      "byteLength": 439968,
      "uri": "scene.bin"
    }
  ],
  "materials": [
    {
      "doubleSided": true,
      "emissiveFactor": [
        0.68000000719999998,
        0.68000000719999998,
        0.68000000719999998
      ],
      "name": "Material.007",
      "pbrMetallicRoughness": {
        "baseColorFactor": [
          0.2461536527,
          0.46472170950000002,
          0.86887007949999995,
          1
        ],
        "metallicFactor": 1,
        "roughnessFactor": 0.14000000000000001
      }
    },
    {
      "doubleSided": true,
      "emissiveFactor": [
        0,
        0,
        0
      ],
      "name": "Material.006",
      "pbrMetallicRoughness": {
        "baseColorFactor": [
          1,
          0.42498365040000002,
          0.1268673837,
          1
        ],
        "metallicFactor": 0,
        "roughnessFactor": 0.59999999999999998
      }
    },
    {
      "doubleSided": true,
      "name": "Material.004",
      "pbrMetallicRoughness": {
        "baseColorFactor": [
          0.2334749123,
          0.61286624990000005,
          0.1201209597,
          1
        ],
        "metallicFactor": 0.81000000000000005,
        "roughnessFactor": 0.80000000000000004
      }
    },
    {
      "doubleSided": true,
      "name": "Material",
      "pbrMetallicRoughness": {
        "baseColorFactor": [
          0.0219771229,
          0.0028083825000000001,
          0.0013850767000000001,
          1
        ],
        "metallicFactor": 0.22,
        "roughnessFactor": 0.34999999999999998
      }
    },
    {
      "alphaMode": "BLEND",
      "doubleSided": true,
      "emissiveFactor": [
        0.074095565230000007,
        0.040473697020000005,
        0.022875060000000003
      ],
      "name": "Material.001",
      "pbrMetallicRoughness": {
        "baseColorFactor": [
          1,
          0.161232233,
          0.14196367560000001,
          0.93999999999999995
        ],
        "metallicFactor": 0,
        "roughnessFactor": 0.46999999999999997
      }
    }
  ],
  "meshes": [
    {
      "name": "poring_0",
      "primitives": [
        {
          "attributes": {
            "NORMAL": 1,
            "POSITION": 0
          },
          "indices": 2,
          "material": 4,
          "mode": 4
        }
      ]
    },
    {
      "name": "ojos_0",
      "primitives": [
        {
          "attributes": {
            "NORMAL": 4,
            "POSITION": 3
          },
          "indices": 5,
          "material": 3,
          "mode": 4
        }
      ]
    },
    {
      "name": "hueriba_0",
      "primitives": [
        {
          "attributes": {
            "NORMAL": 7,
            "POSITION": 6
          },
          "indices": 8,
          "material": 2,
          "mode": 4
        }
      ]
    },
    {
      "name": "hueriba.001_0",
      "primitives": [
        {
          "attributes": {
            "NORMAL": 10,
            "POSITION": 9
          },
          "indices": 11,
          "material": 1,
          "mode": 4
        }
      ]
    },
    {
      "name": "jellopy_0",
      "primitives": [
        {
          "attributes": {
            "NORMAL": 13,
            "POSITION": 12
          },
          "indices": 14,
          "material": 0,
          "mode": 4
        }
      ]
    }
  ],
  "nodes": [
    {
      "children": [
        1
      ],
      "name": "RootNode (gltf orientation matrix)",
      "rotation": [
        -0.70710678118654746,
        -0,
        -0,
        0.70710678118654757
      ]
    },
    {
      "children": [
        2
      ],
      "name": "RootNode (model correction matrix)"
    },
    {
      "children": [
        3,
        5,
        7,
        9,
        11,
        13,
        15
      ],
      "name": "Root"
    },
    {
      "children": [
        4
      ],
      "matrix": [
        -0.049350000000000012,
        0.34580000000000011,
        -0.13231999999999999,
        0,
        -0.31019000000000002,
        0.034280000000000005,
        0.20526000000000003,
        0,
        0.20216999999999999,
        0.13701000000000002,
        0.28264,
        0,
        1.6476999999999999,
        0.43948000000000009,
        1.86774,
        1
      ],
      "name": "Lamp"
    },
    {
      "name": "Lamp"
    },
    {
      "children": [
        6
      ],
      "matrix": [
        1,
        0,
        0,
        0,
        0,
        0.99742999999999993,
        -0.071640000000000009,
        0,
        -0,
        0.071640000000000009,
        0.99742999999999993,
        0,
        -0.00024000000000000009,
        -0.01984,
        0.0032500000000000012,
        1
      ],
      "name": "poring"
    },
    {
      "mesh": 0,
      "name": "poring_0"
    },
    {
      "children": [
        8
      ],
      "matrix": [
        -0.29086000000000006,
        0.95517000000000007,
        -0.05519000000000001,
        0,
        -0.77110000000000001,
        -0.19988000000000003,
        0.60452000000000006,
        0,
        0.56639000000000006,
        0.21839000000000003,
        0.7946700000000001,
        0,
        2.9837400000000001,
        -1.3347500000000001,
        1.7137100000000001,
        1
      ],
      "name": "Lamp.001"
    },
    {
      "name": "Lamp.001"
    },
    {
      "children": [
        10
      ],
      "matrix": [
        0.17622000000000002,
        0,
        0,
        0,
        0,
        0.17622000000000002,
        0,
        0,
        0,
        0,
        0.17622000000000002,
        0,
        0.0079600000000000018,
        -0.70744000000000007,
        -0.005170000000000001,
        1
      ],
      "name": "ojos"
    },
    {
      "mesh": 1,
      "name": "ojos_0"
    },
    {
      "children": [
        12
      ],
      "matrix": [
        1.5708299999999999,
        0,
        0,
        0,
        0,
        1.5708299999999999,
        0,
        0,
        0,
        0,
        1.5708299999999999,
        0,
        0.047390000000000009,
        -0.11756000000000003,
        -0.58838000000000001,
        1
      ],
      "name": "hueriba"
    },
    {
      "mesh": 2,
      "name": "hueriba_0"
    },
    {
      "children": [
        14
      ],
      "matrix": [
        1.5708299999999999,
        0,
        0,
        0,
        0,
        1.5708299999999999,
        0,
        0,
        0,
        0,
        1.5708299999999999,
        0,
        0.047390000000000009,
        -0.11756000000000003,
        -0.58838000000000001,
        1
      ],
      "name": "hueriba.001"
    },
    {
      "mesh": 3,
      "name": "hueriba.001_0"
    },
    {
      "children": [
        16
      ],
      "matrix": [
        0.39911000000000008,
        0,
        0,
        0,
        0,
        0.37130000000000007,
        -0.14637,
        0,
        -0,
        0.14637,
        0.37130000000000007,
        0,
        -0.058140000000000011,
        0.053250000000000013,
        0.29415000000000002,
        1
      ],
      "name": "jellopy"
    },
    {
      "mesh": 4,
      "name": "jellopy_0"
    }
  ],
  "scene": 0,
  "scenes": [
    {
      "name": "OSG_Scene",
      "nodes": [
        0
      ]
    }
  ]
}

