{
  "accessors": [
    {
      "bufferView": 2,
      "componentType": 5126,
      "count": 1470,
      "max": [
        171.46348571777344,
        284.82403564453125,
        -3.6024565696716309
      ],
      "min": [
        -173.52841186523438,
        -74.113067626953125,
        -23.722455978393555
      ],
      "type": "VEC3"
    },
    {
      "bufferView": 2,
      "byteOffset": 17640,
      "componentType": 5126,
      "count": 1470,
      "max": [
        0.99999189376831055,
        0.99998557567596436,
        -0
      ],
      "min": [
        -0.9999854564666748,
        -0.99995583295822144,
        -0
      ],
      "type": "VEC3"
    },
    {
      "bufferView": 3,
      "componentType": 5126,
      "count": 1470,
      "max": [
        0.99995583295822144,
        0.99999195337295532,
        0,
        1
      ],
      "min": [
        -0.99998563528060913,
        -0.9999854564666748,
        0,
        1
      ],
      "type": "VEC4"
    },
    {
      "bufferView": 1,
      "componentType": 5126,
      "count": 1470,
      "max": [
        1,
        1
      ],
      "min": [
        0,
        0
      ],
      "type": "VEC2"
    },
    {
      "bufferView": 0,
      "componentType": 5125,
      "count": 4296,
      "max": [
        1469
      ],
      "min": [
        0
      ],
      "type": "SCALAR"
    },
    {
      "bufferView": 2,
      "byteOffset": 35280,
      "componentType": 5126,
      "count": 717,
      "max": [
        171.46348571777344,
        284.82403564453125,
        -3.6024565696716309
      ],
      "min": [
        -173.52841186523438,
        -74.113067626953125,
        -3.6024565696716309
      ],
      "type": "VEC3"
    },
    {
      "bufferView": 2,
      "byteOffset": 43884,
      "componentType": 5126,
      "count": 717,
      "max": [
        0,
        0,
        1
      ],
      "min": [
        0,
        0,
        1
      ],
      "type": "VEC3"
    },
    {
      "bufferView": 3,
      "byteOffset": 23520,
      "componentType": 5126,
      "count": 717,
      "max": [
        0.97174531221389771,
        -0.2360321432352066,
        0,
        1
      ],
      "min": [
        0.96768367290496826,
        -0.25216734409332275,
        0,
        1
      ],
      "type": "VEC4"
    },
    {
      "bufferView": 1,
      "byteOffset": 11760,
      "componentType": 5126,
      "count": 717,
      "max": [
        0.73479151725769043,
        1
      ],
      "min": [
        0,
        0
      ],
      "type": "VEC2"
    },
    {
      "bufferView": 0,
      "byteOffset": 17184,
      "componentType": 5125,
      "count": 2148,
      "max": [
        716
      ],
      "min": [
        0
      ],
      "type": "SCALAR"
    },
    {
      "bufferView": 2,
      "byteOffset": 52488,
      "componentType": 5126,
      "count": 717,
      "max": [
        171.46348571777344,
        284.82403564453125,
        -23.722455978393555
      ],
      "min": [
        -173.52841186523438,
        -74.113067626953125,
        -23.722455978393555
      ],
      "type": "VEC3"
    },
    {
      "bufferView": 2,
      "byteOffset": 61092,
      "componentType": 5126,
      "count": 717,
      "max": [
        0,
        0,
        -1
      ],
      "min": [
        0,
        0,
        -1
      ],
      "type": "VEC3"
    },
    {
      "bufferView": 3,
      "byteOffset": 34992,
      "componentType": 5126,
      "count": 717,
      "max": [
        -0.30785447359085083,
        0.95143353939056396,
        0,
        -1
      ],
      "min": [
        -0.31609371304512024,
        0.94872796535491943,
        0,
        -1
      ],
      "type": "VEC4"
    },
    {
      "bufferView": 1,
      "byteOffset": 17496,
      "componentType": 5126,
      "count": 717,
      "max": [
        0.67874389886856079,
        1
      ],
      "min": [
        0,
        0
      ],
      "type": "VEC2"
    },
    {
      "bufferView": 0,
      "byteOffset": 25776,
      "componentType": 5125,
      "count": 2148,
      "max": [
        716
      ],
      "min": [
        0
      ],
      "type": "SCALAR"
    },
    {
      "bufferView": 2,
      "byteOffset": 69696,
      "componentType": 5126,
      "count": 4422,
      "max": [
        167.08558654785156,
        281.04971313476562,
        6.7721242904663086
      ],
      "min": [
        -172.82571411132812,
        -72.601417541503906,
        -34.227874755859375
      ],
      "type": "VEC3"
    },
    {
      "bufferView": 2,
      "byteOffset": 122760,
      "componentType": 5126,
      "count": 4422,
      "max": [
        0.99999773502349854,
        1,
        -0
      ],
      "min": [
        -0.99999535083770752,
        -0.99999988079071045,
        -0
      ],
      "type": "VEC3"
    },
    {
      "bufferView": 3,
      "byteOffset": 46464,
      "componentType": 5126,
      "count": 4422,
      "max": [
        0.99999898672103882,
        0.99999767541885376,
        0,
        1
      ],
      "min": [
        -1,
        -0.99999761581420898,
        0,
        -1
      ],
      "type": "VEC4"
    },
    {
      "bufferView": 1,
      "byteOffset": 23232,
      "componentType": 5126,
      "count": 4422,
      "max": [
        1,
        1
      ],
      "min": [
        0,
        0
      ],
      "type": "VEC2"
    },
    {
      "bufferView": 0,
      "byteOffset": 34368,
      "componentType": 5125,
      "count": 12858,
      "max": [
        4421
      ],
      "min": [
        0
      ],
      "type": "SCALAR"
    },
    {
      "bufferView": 2,
      "byteOffset": 175824,
      "componentType": 5126,
      "count": 2143,
      "max": [
        167.08558654785156,
        281.04971313476562,
        6.7721242904663086
      ],
      "min": [
        -172.82571411132812,
        -72.601417541503906,
        6.7721242904663086
      ],
      "type": "VEC3"
    },
    {
      "bufferView": 2,
      "byteOffset": 201540,
      "componentType": 5126,
      "count": 2143,
      "max": [
        0,
        0,
        1
      ],
      "min": [
        0,
        0,
        0.99999994039535522
      ],
      "type": "VEC3"
    },
    {
      "bufferView": 3,
      "byteOffset": 117216,
      "componentType": 5126,
      "count": 2143,
      "max": [
        -0.49712848663330078,
        0.86767703294754028,
        0,
        1
      ],
      "min": [
        -0.54767972230911255,
        0.83668816089630127,
        0,
        1
      ],
      "type": "VEC4"
    },
    {
      "bufferView": 1,
      "byteOffset": 58608,
      "componentType": 5126,
      "count": 2143,
      "max": [
        0.61025810241699219,
        1
      ],
      "min": [
        0,
        0
      ],
      "type": "VEC2"
    },
    {
      "bufferView": 0,
      "byteOffset": 85800,
      "componentType": 5125,
      "count": 6483,
      "max": [
        2142
      ],
      "min": [
        0
      ],
      "type": "SCALAR"
    },
    {
      "bufferView": 2,
      "byteOffset": 227256,
      "componentType": 5126,
      "count": 2143,
      "max": [
        167.08558654785156,
        281.04971313476562,
        -34.227874755859375
      ],
      "min": [
        -172.82571411132812,
        -72.601417541503906,
        -34.227874755859375
      ],
      "type": "VEC3"
    },
    {
      "bufferView": 2,
      "byteOffset": 252972,
      "componentType": 5126,
      "count": 2143,
      "max": [
        0,
        0,
        -0.99999994039535522
      ],
      "min": [
        0,
        0,
        -1
      ],
      "type": "VEC3"
    },
    {
      "bufferView": 3,
      "byteOffset": 151504,
      "componentType": 5126,
      "count": 2143,
      "max": [
        -0.1559111475944519,
        -0.9867369532585144,
        0,
        -1
      ],
      "min": [
        -0.16232773661613464,
        -0.98777115345001221,
        0,
        -1
      ],
      "type": "VEC4"
    },
    {
      "bufferView": 1,
      "byteOffset": 75752,
      "componentType": 5126,
      "count": 2143,
      "max": [
        1,
        1
      ],
      "min": [
        0,
        0.22017931938171387
      ],
      "type": "VEC2"
    },
    {
      "bufferView": 0,
      "byteOffset": 111732,
      "componentType": 5125,
      "count": 6483,
      "max": [
        2142
      ],
      "min": [
        0
      ],
      "type": "SCALAR"
    },
    {
      "bufferView": 4,
      "componentType": 5126,
      "count": 91,
      "max": [
        3
      ],
      "min": [
        0
      ],
      "type": "SCALAR"
    },
    {
      "bufferView": 5,
      "componentType": 5126,
      "count": 91,
      "max": [
        0,
        30.749252319335938,
        0
      ],
      "min": [
        0,
        0,
        0
      ],
      "type": "VEC3"
    }
  ],
  "animations": [
    {
      "channels": [
        {
          "sampler": 0,
          "target": {
            "node": 7,
            "path": "translation"
          }
        }
      ],
      "name": "CINEMA_4D_Main",
      "samplers": [
        {
          "input": 30,
          "interpolation": "LINEAR",
          "output": 31
        }
      ]
    }
  ],
  "asset": {
    "extras": {
      "author": "ebraun (https://sketchfab.com/ebraun)",
      "license": "CC-BY-4.0 (http://creativecommons.org/licenses/by/4.0/)",
      "source": "https://sketchfab.com/3d-models/unicorn-only-floating-1d88815513784455b80c5ecfb8acea4d",
      "title": "Unicorn Only Floating"
    },
    "generator": "Sketchfab-4.78.0",
    "version": "2.0"
  },
  "bufferViews": [
    {
      "buffer": 0,
      "byteLength": 137664,
      "byteOffset": 0,
      "name": "floatBufferViews",
      "target": 34963
    },
    {
      "buffer": 0,
      "byteLength": 92896,
      "byteOffset": 137664,
      "byteStride": 8,
      "name": "floatBufferViews",
      "target": 34962
    },
    {
      "buffer": 0,
      "byteLength": 278688,
      "byteOffset": 230560,
      "byteStride": 12,
      "name": "floatBufferViews",
      "target": 34962
    },
    {
      "buffer": 0,
      "byteLength": 185792,
      "byteOffset": 509248,
      "byteStride": 16,
      "name": "floatBufferViews",
      "target": 34962
    },
    {
      "buffer": 0,
      "byteLength": 364,
      "byteOffset": 695040,
      "name": "floatBufferViews"
    },
    {
      "buffer": 0,
      "byteLength": 1092,
      "byteOffset": 695404,
      "byteStride": 12,
      "name": "floatBufferViews"
    }
  ],
  "buffers": [
    {
      "byteLength": 696496,
      "uri": "scene.bin"
    }
  ],
  "materials": [
    {
      "doubleSided": true,
      "emissiveFactor": [
        0,
        0,
        0
      ],
      "name": "material",
      "pbrMetallicRoughness": {
        "baseColorFactor": [
          1,
          1,
          1,
          1
        ],
        "metallicFactor": 0,
        "roughnessFactor": 0.95243171540000005
      }
    },
    {
      "doubleSided": true,
      "emissiveFactor": [
        0,
        0,
        0
      ],
      "name": "Mat.1",
      "pbrMetallicRoughness": {
        "baseColorFactor": [
          0.094117599999999996,
          0.145098,
          0.66666700000000001,
          1
        ],
        "metallicFactor": 0,
        "roughnessFactor": 0.95243171540000005
      }
    }
  ],
  "meshes": [
    {
      "name": "unicornoutline_Mat_0",
      "primitives": [
        {
          "attributes": {
            "NORMAL": 1,
            "POSITION": 0,
            "TANGENT": 2,
            "TEXCOORD_0": 3
          },
          "indices": 4,
          "material": 0,
          "mode": 4
        }
      ]
    },
    {
      "name": "Cap_1_Mat_0",
      "primitives": [
        {
          "attributes": {
            "NORMAL": 6,
            "POSITION": 5,
            "TANGENT": 7,
            "TEXCOORD_0": 8
          },
          "indices": 9,
          "material": 0,
          "mode": 4
        }
      ]
    },
    {
      "name": "Cap_2_Mat_0",
      "primitives": [
        {
          "attributes": {
            "NORMAL": 11,
            "POSITION": 10,
            "TANGENT": 12,
            "TEXCOORD_0": 13
          },
          "indices": 14,
          "material": 0,
          "mode": 4
        }
      ]
    },
    {
      "name": "unicorninner_Mat.1_0",
      "primitives": [
        {
          "attributes": {
            "NORMAL": 16,
            "POSITION": 15,
            "TANGENT": 17,
            "TEXCOORD_0": 18
          },
          "indices": 19,
          "material": 1,
          "mode": 4
        }
      ]
    },
    {
      "name": "Cap_1_1_Mat.1_0",
      "primitives": [
        {
          "attributes": {
            "NORMAL": 21,
            "POSITION": 20,
            "TANGENT": 22,
            "TEXCOORD_0": 23
          },
          "indices": 24,
          "material": 1,
          "mode": 4
        }
      ]
    },
    {
      "name": "Cap_2_1_Mat.1_0",
      "primitives": [
        {
          "attributes": {
            "NORMAL": 26,
            "POSITION": 25,
            "TANGENT": 27,
            "TEXCOORD_0": 28
          },
          "indices": 29,
          "material": 1,
          "mode": 4
        }
      ]
    }
  ],
  "nodes": [
    {
      "children": [
        1
      ],
      "name": "RootNode (gltf orientation matrix)",
      "rotation": [
        -0.70710678118654746,
        -0,
        -0,
        0.70710678118654757
      ]
    },
    {
      "children": [
        2
      ],
      "name": "RootNode (model correction matrix)"
    },
    {
      "children": [
        3
      ],
      "matrix": [
        1,
        0,
        0,
        0,
        0,
        0,
        1,
        0,
        0,
        -1,
        0,
        0,
        0,
        0,
        0,
        1
      ],
      "name": "26112e465b3a4332b6053719912f8508.fbx"
    },
    {
      "children": [
        4
      ],
      "name": ""
    },
    {
      "children": [
        5,
        7
      ],
      "name": "RootNode"
    },
    {
      "children": [
        6
      ],
      "name": "CINEMA_4D_Editor",
      "rotation": [
        -0.082311064004898071,
        0.66796016693115234,
        -0.090458676218986511,
        0.73407864570617676
      ],
      "translation": [
        -254.02569580078125,
        518.03875732421875,
        1340.39501953125
      ]
    },
    {
      "name": ""
    },
    {
      "children": [
        8,
        10,
        12,
        14,
        16,
        18
      ],
      "name": "UnicornOnly_obj"
    },
    {
      "children": [
        9
      ],
      "name": "unicornoutline"
    },
    {
      "mesh": 0,
      "name": "unicornoutline_Mat_0"
    },
    {
      "children": [
        11
      ],
      "name": "Cap_1"
    },
    {
      "mesh": 1,
      "name": "Cap_1_Mat_0"
    },
    {
      "children": [
        13
      ],
      "name": "Cap_2"
    },
    {
      "mesh": 2,
      "name": "Cap_2_Mat_0"
    },
    {
      "children": [
        15
      ],
      "name": "unicorninner"
    },
    {
      "mesh": 3,
      "name": "unicorninner_Mat.1_0"
    },
    {
      "children": [
        17
      ],
      "name": "Cap_1_1"
    },
    {
      "mesh": 4,
      "name": "Cap_1_1_Mat.1_0"
    },
    {
      "children": [
        19
      ],
      "name": "Cap_2_1"
    },
    {
      "mesh": 5,
      "name": "Cap_2_1_Mat.1_0"
    }
  ],
  "scene": 0,
  "scenes": [
    {
      "name": "OSG_Scene",
      "nodes": [
        0
      ]
    }
  ]
}

