{
  "accessors": [
    {
      "bufferView": 2,
      "componentType": 5126,
      "count": 14502,
      "max": [
        3.1539349555969238,
        3.1539349555969238,
        3.8644618988037109
      ],
      "min": [
        -3.1539349555969238,
        -3.1539349555969238,
        -0.43754801154136658
      ],
      "type": "VEC3"
    },
    {
      "bufferView": 2,
      "byteOffset": 174024,
      "componentType": 5126,
      "count": 14502,
      "max": [
        1,
        1,
        1
      ],
      "min": [
        -1,
        -1,
        -1
      ],
      "type": "VEC3"
    },
    {
      "bufferView": 1,
      "componentType": 5126,
      "count": 14502,
      "max": [
        0.99931997060775757,
        0.99501502513885498
      ],
      "min": [
        0.0002840000088326633,
        0.0034469999372959137
      ],
      "type": "VEC2"
    },
    {
      "bufferView": 0,
      "componentType": 5125,
      "count": 33324,
      "max": [
        14501
      ],
      "min": [
        0
      ],
      "type": "SCALAR"
    },
    {
      "bufferView": 2,
      "byteOffset": 348048,
      "componentType": 5126,
      "count": 729,
      "max": [
        2.207597017288208,
        2.207597017288208,
        0.33558699488639832
      ],
      "min": [
        -2.207597017288208,
        -2.207597017288208,
        0.097672998905181885
      ],
      "type": "VEC3"
    },
    {
      "bufferView": 2,
      "byteOffset": 356796,
      "componentType": 5126,
      "count": 729,
      "max": [
        0.46062085032463074,
        0.36938849091529846,
        0.99996268749237061
      ],
      "min": [
        -0.31509798765182495,
        -0.34728783369064331,
        0.88093990087509155
      ],
      "type": "VEC3"
    },
    {
      "bufferView": 1,
      "byteOffset": 116016,
      "componentType": 5126,
      "count": 729,
      "max": [
        0.62416398525238037,
        0.83400899171829224
      ],
      "min": [
        0.37314000725746155,
        0.59256899356842041
      ],
      "type": "VEC2"
    },
    {
      "bufferView": 0,
      "byteOffset": 133296,
      "componentType": 5125,
      "count": 4056,
      "max": [
        728
      ],
      "min": [
        0
      ],
      "type": "SCALAR"
    }
  ],
  "asset": {
    "extras": {
      "author": "gizacorp01 (https://sketchfab.com/gizacorp01)",
      "license": "CC-BY-4.0 (http://creativecommons.org/licenses/by/4.0/)",
      "source": "https://sketchfab.com/3d-models/star-of-david-1b86c487a7004a7390b9134da2e21d07",
      "title": "Star Of David"
    },
    "generator": "Sketchfab-8.20.0",
    "version": "2.0"
  },
  "bufferViews": [
    {
      "buffer": 0,
      "byteLength": 149520,
      "byteOffset": 0,
      "name": "floatBufferViews",
      "target": 34963
    },
    {
      "buffer": 0,
      "byteLength": 121848,
      "byteOffset": 149520,
      "byteStride": 8,
      "name": "floatBufferViews",
      "target": 34962
    },
    {
      "buffer": 0,
      "byteLength": 365544,
      "byteOffset": 271368,
      "byteStride": 12,
      "name": "floatBufferViews",
      "target": 34962
    }
  ],
  "buffers": [
    {
      "byteLength": 636912,
      "uri": "scene.bin"
    }
  ],
  "images": [
    {
      "uri": "textures/Material.001_baseColor.png"
    }
  ],
  "materials": [
    {
      "doubleSided": true,
      "emissiveFactor": [
        0,
        0,
        0
      ],
      "name": "Material.001",
      "pbrMetallicRoughness": {
        "baseColorFactor": [
          1,
          1,
          1,
          1
        ],
        "baseColorTexture": {
          "index": 0,
          "texCoord": 0
        },
        "metallicFactor": 0.28220274390243905,
        "roughnessFactor": 0.29706554878048785
      }
    }
  ],
  "meshes": [
    {
      "primitives": [
        {
          "attributes": {
            "NORMAL": 1,
            "POSITION": 0,
            "TEXCOORD_0": 2
          },
          "indices": 3,
          "material": 0,
          "mode": 4
        }
      ]
    },
    {
      "primitives": [
        {
          "attributes": {
            "NORMAL": 5,
            "POSITION": 4,
            "TEXCOORD_0": 6
          },
          "indices": 7,
          "material": 0,
          "mode": 4
        }
      ]
    }
  ],
  "nodes": [
    {
      "children": [
        1
      ],
      "name": "RootNode (gltf orientation matrix)",
      "rotation": [
        -0.70710678118654746,
        -0,
        -0,
        0.70710678118654757
      ]
    },
    {
      "children": [
        2
      ],
      "matrix": [
        0.40141254663467407,
        0,
        0,
        0,
        0,
        0.40141254663467407,
        0,
        0,
        0,
        0,
        0.40141254663467407,
        0,
        0,
        0,
        0,
        1
      ],
      "name": "RootNode (model correction matrix)"
    },
    {
      "children": [
        3,
        4
      ],
      "name": "Star of David.obj.cleaner.materialmerger.gles"
    },
    {
      "mesh": 0,
      "name": ""
    },
    {
      "mesh": 1,
      "name": ""
    }
  ],
  "samplers": [
    {
      "magFilter": 9729,
      "minFilter": 9987,
      "wrapS": 10497,
      "wrapT": 10497
    }
  ],
  "scene": 0,
  "scenes": [
    {
      "name": "OSG_Scene",
      "nodes": [
        0
      ]
    }
  ],
  "textures": [
    {
      "sampler": 0,
      "source": 0
    }
  ]
}

