{
  "accessors": [
    {
      "bufferView": 1,
      "componentType": 5126,
      "count": 580,
      "max": [
        0.082530200481414795,
        0.0099999997764825821,
        0.070443630218505859
      ],
      "min": [
        0.059550117701292038,
        -0.0099999997764825821,
        0.0021162480115890503
      ],
      "type": "VEC3"
    },
    {
      "bufferView": 1,
      "byteOffset": 6960,
      "componentType": 5126,
      "count": 580,
      "max": [
        0.99999988079071045,
        1,
        0.99965870380401611
      ],
      "min": [
        -0.99999141693115234,
        -1,
        -0.99999856948852539
      ],
      "type": "VEC3"
    },
    {
      "bufferView": 0,
      "componentType": 5125,
      "count": 1728,
      "max": [
        579
      ],
      "min": [
        0
      ],
      "type": "SCALAR"
    },
    {
      "bufferView": 1,
      "byteOffset": 13920,
      "componentType": 5126,
      "count": 628,
      "max": [
        0.17371158301830292,
        0.0099999997764825821,
        0.041032571345567703
      ],
      "min": [
        0.15039618313312531,
        -0.0099999997764825821,
        0.0021162480115890503
      ],
      "type": "VEC3"
    },
    {
      "bufferView": 1,
      "byteOffset": 21456,
      "componentType": 5126,
      "count": 628,
      "max": [
        0.99997925758361816,
        1,
        0.99995732307434082
      ],
      "min": [
        -0.9999624490737915,
        -1,
        -1
      ],
      "type": "VEC3"
    },
    {
      "bufferView": 0,
      "byteOffset": 6912,
      "componentType": 5125,
      "count": 1872,
      "max": [
        627
      ],
      "min": [
        0
      ],
      "type": "SCALAR"
    },
    {
      "bufferView": 1,
      "byteOffset": 28992,
      "componentType": 5126,
      "count": 1012,
      "max": [
        0.050624657422304153,
        0.0099999997764825821,
        0.070837311446666718
      ],
      "min": [
        0.0031750656198710203,
        -0.0099999997764825821,
        0.0024072336964309216
      ],
      "type": "VEC3"
    },
    {
      "bufferView": 1,
      "byteOffset": 41136,
      "componentType": 5126,
      "count": 1012,
      "max": [
        0.99999737739562988,
        1,
        0.9999995231628418
      ],
      "min": [
        -1,
        -1,
        -0.99999988079071045
      ],
      "type": "VEC3"
    },
    {
      "bufferView": 0,
      "byteOffset": 14400,
      "componentType": 5125,
      "count": 3024,
      "max": [
        1011
      ],
      "min": [
        0
      ],
      "type": "SCALAR"
    },
    {
      "bufferView": 1,
      "byteOffset": 53280,
      "componentType": 5126,
      "count": 878,
      "max": [
        0.14146681129932404,
        0.0099999997764825821,
        0.070766948163509369
      ],
      "min": [
        0.094052501022815704,
        -0.0099999997764825821,
        0.0024248696863651276
      ],
      "type": "VEC3"
    },
    {
      "bufferView": 1,
      "byteOffset": 63816,
      "componentType": 5126,
      "count": 878,
      "max": [
        1,
        1,
        0.99995613098144531
      ],
      "min": [
        -0.9999995231628418,
        -1,
        -0.99994337558746338
      ],
      "type": "VEC3"
    },
    {
      "bufferView": 0,
      "byteOffset": 26496,
      "componentType": 5125,
      "count": 2592,
      "max": [
        877
      ],
      "min": [
        0
      ],
      "type": "SCALAR"
    },
    {
      "bufferView": 1,
      "byteOffset": 74352,
      "componentType": 5126,
      "count": 528,
      "max": [
        0.015813650563359261,
        0.0099999997764825821,
        0.07083602249622345
      ],
      "min": [
        0.0037453602999448776,
        -0.0099999997764825821,
        0.041686002165079117
      ],
      "type": "VEC3"
    },
    {
      "bufferView": 1,
      "byteOffset": 80688,
      "componentType": 5126,
      "count": 528,
      "max": [
        0.99999403953552246,
        1,
        0.99958670139312744
      ],
      "min": [
        -0.99998390674591064,
        -1,
        -0.9999997615814209
      ],
      "type": "VEC3"
    },
    {
      "bufferView": 0,
      "byteOffset": 36864,
      "componentType": 5125,
      "count": 1572,
      "max": [
        527
      ],
      "min": [
        0
      ],
      "type": "SCALAR"
    },
    {
      "bufferView": 1,
      "byteOffset": 87024,
      "componentType": 5126,
      "count": 576,
      "max": [
        0.10683523863554001,
        0.0099999997764825821,
        0.070872604846954346
      ],
      "min": [
        0.094775058329105377,
        -0.0099999997764825821,
        0.041720438748598099
      ],
      "type": "VEC3"
    },
    {
      "bufferView": 1,
      "byteOffset": 93936,
      "componentType": 5126,
      "count": 576,
      "max": [
        0.99999988079071045,
        1,
        0.99966347217559814
      ],
      "min": [
        -0.9999992847442627,
        -1,
        -0.99998283386230469
      ],
      "type": "VEC3"
    },
    {
      "bufferView": 0,
      "byteOffset": 43152,
      "componentType": 5125,
      "count": 1716,
      "max": [
        575
      ],
      "min": [
        0
      ],
      "type": "SCALAR"
    }
  ],
  "asset": {
    "extras": {
      "author": "wpswps (https://sketchfab.com/wpswps)",
      "license": "CC-BY-4.0 (http://creativecommons.org/licenses/by/4.0/)",
      "source": "https://sketchfab.com/3d-models/tetragrammaton-gold-1292bfbdaa12430cafd658ac20b17835",
      "title": "Tetragrammaton gold"
    },
    "generator": "Sketchfab-9.94.0",
    "version": "2.0"
  },
  "bufferViews": [
    {
      "buffer": 0,
      "byteLength": 50016,
      "byteOffset": 0,
      "name": "floatBufferViews",
      "target": 34963
    },
    {
      "buffer": 0,
      "byteLength": 100848,
      "byteOffset": 50016,
      "byteStride": 12,
      "name": "floatBufferViews",
      "target": 34962
    }
  ],
  "buffers": [
    {
      "byteLength": 150864,
      "uri": "scene.bin"
    }
  ],
  "materials": [
    {
      "doubleSided": true,
      "emissiveFactor": [
        0,
        0,
        0
      ],
      "name": "SVGMat.001",
      "pbrMetallicRoughness": {
        "baseColorFactor": [
          0.27321400000000001,
          0.20019799999999999,
          0,
          1
        ],
        "metallicFactor": 1,
        "roughnessFactor": 0.10000000000000001
      }
    }
  ],
  "meshes": [
    {
      "primitives": [
        {
          "attributes": {
            "NORMAL": 1,
            "POSITION": 0
          },
          "indices": 2,
          "material": 0,
          "mode": 4
        }
      ]
    },
    {
      "primitives": [
        {
          "attributes": {
            "NORMAL": 4,
            "POSITION": 3
          },
          "indices": 5,
          "material": 0,
          "mode": 4
        }
      ]
    },
    {
      "primitives": [
        {
          "attributes": {
            "NORMAL": 7,
            "POSITION": 6
          },
          "indices": 8,
          "material": 0,
          "mode": 4
        }
      ]
    },
    {
      "primitives": [
        {
          "attributes": {
            "NORMAL": 10,
            "POSITION": 9
          },
          "indices": 11,
          "material": 0,
          "mode": 4
        }
      ]
    },
    {
      "primitives": [
        {
          "attributes": {
            "NORMAL": 13,
            "POSITION": 12
          },
          "indices": 14,
          "material": 0,
          "mode": 4
        }
      ]
    },
    {
      "primitives": [
        {
          "attributes": {
            "NORMAL": 16,
            "POSITION": 15
          },
          "indices": 17,
          "material": 0,
          "mode": 4
        }
      ]
    }
  ],
  "nodes": [
    {
      "children": [
        1
      ],
      "name": "RootNode (gltf orientation matrix)",
      "rotation": [
        -0.70710678118654746,
        -0,
        -0,
        0.70710678118654757
      ]
    },
    {
      "children": [
        2
      ],
      "name": "RootNode (model correction matrix)"
    },
    {
      "children": [
        3
      ],
      "name": "root"
    },
    {
      "children": [
        4,
        6,
        8,
        10,
        12,
        14
      ],
      "matrix": [
        1,
        0,
        0,
        0,
        0,
        2.2204460492503131e-16,
        1,
        0,
        0,
        -1,
        2.2204460492503131e-16,
        0,
        0,
        0,
        0,
        1
      ],
      "name": "GLTF_SceneRootNode"
    },
    {
      "children": [
        5
      ],
      "matrix": [
        47.652851104736328,
        0,
        0,
        0,
        0,
        47.652851104736328,
        0,
        0,
        0,
        0,
        47.652851104736328,
        0,
        0,
        0,
        0,
        1
      ],
      "name": "Curve_4"
    },
    {
      "mesh": 0,
      "name": ""
    },
    {
      "children": [
        7
      ],
      "matrix": [
        47.652851104736328,
        0,
        0,
        0,
        0,
        47.652851104736328,
        0,
        0,
        0,
        0,
        47.652851104736328,
        0,
        0,
        0,
        0,
        1
      ],
      "name": "Curve.001_5"
    },
    {
      "mesh": 1,
      "name": ""
    },
    {
      "children": [
        9
      ],
      "matrix": [
        47.652851104736328,
        0,
        0,
        0,
        0,
        47.652851104736328,
        0,
        0,
        0,
        0,
        47.652851104736328,
        0,
        0,
        0,
        0,
        1
      ],
      "name": "Curve.002_6"
    },
    {
      "mesh": 2,
      "name": ""
    },
    {
      "children": [
        11
      ],
      "matrix": [
        47.652851104736328,
        0,
        0,
        0,
        0,
        47.652851104736328,
        0,
        0,
        0,
        0,
        47.652851104736328,
        0,
        0,
        0,
        0,
        1
      ],
      "name": "Curve.003_7"
    },
    {
      "mesh": 3,
      "name": ""
    },
    {
      "children": [
        13
      ],
      "matrix": [
        47.652851104736328,
        0,
        0,
        0,
        0,
        47.652851104736328,
        0,
        0,
        0,
        0,
        47.652851104736328,
        0,
        0,
        0,
        0,
        1
      ],
      "name": "Curve.004_8"
    },
    {
      "mesh": 4,
      "name": ""
    },
    {
      "children": [
        15
      ],
      "matrix": [
        47.652851104736328,
        0,
        0,
        0,
        0,
        47.652851104736328,
        0,
        0,
        0,
        0,
        47.652851104736328,
        0,
        0,
        0,
        0,
        1
      ],
      "name": "Curve.005_9"
    },
    {
      "mesh": 5,
      "name": ""
    }
  ],
  "scene": 0,
  "scenes": [
    {
      "name": "OSG_Scene",
      "nodes": [
        0
      ]
    }
  ]
}

