{
  "accessors": [
    {
      "bufferView": 2,
      "componentType": 5126,
      "count": 63492,
      "max": [
        1.237888216972351,
        1.7189749479293823,
        1.1317247152328491
      ],
      "min": [
        -1.6611062288284302,
        -1.3468120098114014,
        -1.5376306772232056
      ],
      "type": "VEC3"
    },
    {
      "bufferView": 2,
      "byteOffset": 761904,
      "componentType": 5126,
      "count": 63492,
      "max": [
        1.0,
        0.9999943971633911,
        0.9999598264694214
      ],
      "min": [
        -1.0,
        -0.9999932050704956,
        -0.9999864101409912
      ],
      "type": "VEC3"
    },
    {
      "bufferView": 1,
      "componentType": 5126,
      "count": 63492,
      "max": [
        0.8932313323020935,
        0.9789617657661438
      ],
      "min": [
        0.03833219036459923,
        0.002180751645937562
      ],
      "type": "VEC2"
    },
    {
      "bufferView": 0,
      "componentType": 5125,
      "count": 271764,
      "type": "SCALAR"
    },
    {
      "bufferView": 2,
      "byteOffset": 1523808,
      "componentType": 5126,
      "count": 65532,
      "max": [
        1.2647475004196167,
        1.7459644079208374,
        1.1440558433532715
      ],
      "min": [
        -1.7009177207946777,
        -1.3726153373718262,
        -1.5770938396453857
      ],
      "type": "VEC3"
    },
    {
      "bufferView": 2,
      "byteOffset": 2310192,
      "componentType": 5126,
      "count": 65532,
      "max": [
        1.0,
        0.9999635219573975,
        0.9999862909317017
      ],
      "min": [
        -1.0,
        -0.9999969005584717,
        -0.9999977350234985
      ],
      "type": "VEC3"
    },
    {
      "bufferView": 1,
      "byteOffset": 507936,
      "componentType": 5126,
      "count": 65532,
      "max": [
        1.0000003576278687,
        1.0000001192092896
      ],
      "min": [
        0.0,
        0.0
      ],
      "type": "VEC2"
    },
    {
      "bufferView": 0,
      "byteOffset": 1087056,
      "componentType": 5125,
      "count": 187416,
      "type": "SCALAR"
    },
    {
      "bufferView": 2,
      "byteOffset": 3096576,
      "componentType": 5126,
      "count": 2492,
      "max": [
        0.7940962314605713,
        -0.6034328937530518,
        0.08861152827739716
      ],
      "min": [
        0.542375922203064,
        -0.698345959186554,
        -0.17182785272598267
      ],
      "type": "VEC3"
    },
    {
      "bufferView": 2,
      "byteOffset": 3126480,
      "componentType": 5126,
      "count": 2492,
      "max": [
        0.9964534640312195,
        0.9987600445747375,
        0.9999139308929443
      ],
      "min": [
        -0.999348521232605,
        -0.9979358315467834,
        -0.9997633695602417
      ],
      "type": "VEC3"
    },
    {
      "bufferView": 1,
      "byteOffset": 1032192,
      "componentType": 5126,
      "count": 2492,
      "max": [
        0.9508084058761597,
        0.09922602772712708
      ],
      "min": [
        0.9365484118461609,
        0.03888939321041107
      ],
      "type": "VEC2"
    },
    {
      "bufferView": 0,
      "byteOffset": 1836720,
      "componentType": 5125,
      "count": 11532,
      "type": "SCALAR"
    },
    {
      "bufferView": 2,
      "byteOffset": 3156384,
      "componentType": 5126,
      "count": 9264,
      "max": [
        22.94133758544922,
        10.797652244567871,
        22.353500366210938
      ],
      "min": [
        -2.0773167610168457,
        -5.873878002166748,
        -0.8395062685012817
      ],
      "type": "VEC3"
    },
    {
      "bufferView": 2,
      "byteOffset": 3267552,
      "componentType": 5126,
      "count": 9264,
      "max": [
        1.0,
        1.0,
        1.0
      ],
      "min": [
        -1.0,
        -1.0,
        -1.0
      ],
      "type": "VEC3"
    },
    {
      "bufferView": 1,
      "byteOffset": 1052128,
      "componentType": 5126,
      "count": 9264,
      "max": [
        0.6679627299308777,
        0.8691571950912476
      ],
      "min": [
        0.6091263294219971,
        0.4804037809371948
      ],
      "type": "VEC2"
    },
    {
      "bufferView": 0,
      "byteOffset": 1882848,
      "componentType": 5125,
      "count": 55296,
      "type": "SCALAR"
    },
    {
      "bufferView": 2,
      "byteOffset": 3378720,
      "componentType": 5126,
      "count": 20,
      "max": [
        1.3273251056671143,
        1.0,
        0.24448063969612122
      ],
      "min": [
        -2.368323802947998,
        -2.518702983856201,
        0.0
      ],
      "type": "VEC3"
    },
    {
      "bufferView": 2,
      "byteOffset": 3378960,
      "componentType": 5126,
      "count": 20,
      "max": [
        3.352760558072987e-08,
        1.3592616809887659e-08,
        1.0
      ],
      "min": [
        0.0,
        0.0,
        1.0
      ],
      "type": "VEC3"
    },
    {
      "bufferView": 1,
      "byteOffset": 1126240,
      "componentType": 5126,
      "count": 20,
      "max": [
        1.0,
        1.0
      ],
      "min": [
        0.0,
        0.0
      ],
      "type": "VEC2"
    },
    {
      "bufferView": 0,
      "byteOffset": 2104032,
      "componentType": 5125,
      "count": 30,
      "type": "SCALAR"
    }
  ],
  "asset": {
    "extras": {
      "author": "Ergoni (https://sketchfab.com/Ergoni)",
      "license": "CC-BY-4.0 (http://creativecommons.org/licenses/by/4.0/)",
      "source": "https://sketchfab.com/3d-models/axie-sleepy-09c40f4285be4092ba415c4328ffba7c",
      "title": "Axie Sleepy"
    },
    "generator": "Sketchfab-11.59.0",
    "version": "2.0"
  },
  "bufferViews": [
    {
      "buffer": 0,
      "byteLength": 2104152,
      "name": "floatBufferViews",
      "target": 34963
    },
    {
      "buffer": 0,
      "byteLength": 1126400,
      "byteOffset": 2104152,
      "byteStride": 8,
      "name": "floatBufferViews",
      "target": 34962
    },
    {
      "buffer": 0,
      "byteLength": 3379200,
      "byteOffset": 3230552,
      "byteStride": 12,
      "name": "floatBufferViews",
      "target": 34962
    }
  ],
  "buffers": [
    {
      "byteLength": 6609752,
      "uri": "scene.bin"
    }
  ],
  "images": [
    {
      "uri": "textures/material_baseColor.png"
    },
    {
      "uri": "textures/material_3_baseColor.png"
    }
  ],
  "materials": [
    {
      "doubleSided": true,
      "emissiveFactor": [
        1.0,
        1.0,
        1.0
      ],
      "emissiveTexture": {
        "index": 0
      },
      "name": "material",
      "pbrMetallicRoughness": {
        "baseColorTexture": {
          "index": 0
        },
        "metallicFactor": 0.0
      }
    },
    {
      "name": "material_1",
      "pbrMetallicRoughness": {
        "baseColorTexture": {
          "index": 0
        },
        "metallicFactor": 0.0,
        "roughnessFactor": 0.8040408206
      }
    },
    {
      "doubleSided": true,
      "emissiveFactor": [
        1.0,
        1.0,
        1.0
      ],
      "emissiveTexture": {
        "index": 0
      },
      "name": "Tex-2",
      "pbrMetallicRoughness": {
        "baseColorTexture": {
          "index": 0
        },
        "metallicFactor": 0.0
      }
    },
    {
      "doubleSided": true,
      "emissiveFactor": [
        0.5,
        0.5,
        0.5
      ],
      "emissiveTexture": {
        "index": 1
      },
      "name": "material_3",
      "pbrMetallicRoughness": {
        "baseColorTexture": {
          "index": 1
        },
        "metallicFactor": 0.0
      }
    }
  ],
  "meshes": [
    {
      "name": "Axie_Tex_0",
      "primitives": [
        {
          "attributes": {
            "NORMAL": 1,
            "POSITION": 0,
            "TEXCOORD_0": 2
          },
          "indices": 3,
          "material": 0,
          "mode": 4
        }
      ]
    },
    {
      "name": "Axie_Out_0",
      "primitives": [
        {
          "attributes": {
            "NORMAL": 5,
            "POSITION": 4,
            "TEXCOORD_0": 6
          },
          "indices": 7,
          "material": 1,
          "mode": 4
        }
      ]
    },
    {
      "name": "Axie_Out_0",
      "primitives": [
        {
          "attributes": {
            "NORMAL": 9,
            "POSITION": 8,
            "TEXCOORD_0": 10
          },
          "indices": 11,
          "material": 1,
          "mode": 4
        }
      ]
    },
    {
      "name": "Nube_Tex-2_0",
      "primitives": [
        {
          "attributes": {
            "NORMAL": 13,
            "POSITION": 12,
            "TEXCOORD_0": 14
          },
          "indices": 15,
          "material": 2,
          "mode": 4
        }
      ]
    },
    {
      "name": "Slp_SLP_0",
      "primitives": [
        {
          "attributes": {
            "NORMAL": 17,
            "POSITION": 16,
            "TEXCOORD_0": 18
          },
          "indices": 19,
          "material": 3,
          "mode": 4
        }
      ]
    }
  ],
  "nodes": [
    {
      "children": [
        1
      ],
      "matrix": [
        1.0,
        0.0,
        0.0,
        0.0,
        0.0,
        2.220446049250313e-16,
        -1.0,
        0.0,
        0.0,
        1.0,
        2.220446049250313e-16,
        0.0,
        0.0,
        0.0,
        0.0,
        1.0
      ],
      "name": "Sketchfab_model"
    },
    {
      "children": [
        2
      ],
      "matrix": [
        0.009999999776482582,
        0.0,
        0.0,
        0.0,
        0.0,
        0.0,
        0.009999999776482582,
        0.0,
        0.0,
        -0.009999999776482582,
        0.0,
        0.0,
        0.0,
        0.0,
        0.0,
        1.0
      ],
      "name": "6fbde6c9d7a840728cb57a27e8c7315a.fbx"
    },
    {
      "children": [
        3,
        7,
        9
      ],
      "name": "RootNode"
    },
    {
      "children": [
        4,
        5,
        6
      ],
      "matrix": [
        77.63805499809288,
        42.89501864550795,
        -4.923826662828245e-15,
        0.0,
        1.8750008891460696e-06,
        -3.393667308370377e-06,
        -88.6997756958007,
        0.0,
        -42.8950186455079,
        77.63805499809281,
        -3.877190493948161e-06,
        0.0,
        -5.264153003692627,
        80.14083862304688,
        16.671770095825195,
        1.0
      ],
      "name": "Axie"
    },
    {
      "mesh": 0,
      "name": "Axie_Tex_0"
    },
    {
      "mesh": 1,
      "name": "Axie_Out_0"
    },
    {
      "mesh": 2,
      "name": "Axie_Out_0"
    },
    {
      "children": [
        8
      ],
      "matrix": [
        4.698934078216553,
        0.0,
        0.0,
        0.0,
        0.0,
        -7.869175897881451e-07,
        -4.830065727233823,
        0.0,
        0.0,
        4.6815013885497425,
        -7.627133867963363e-07,
        0.0,
        38.73463439941406,
        137.4610137939453,
        72.56375885009766,
        1.0
      ],
      "name": "Nube"
    },
    {
      "mesh": 3,
      "name": "Nube_Tex-2_0"
    },
    {
      "children": [
        10
      ],
      "matrix": [
        11.598885668204087,
        -9.699305519728629,
        -2.012377237347566e-14,
        0.0,
        9.69930551972862,
        11.598885668204076,
        6.609108083438496e-07,
        0.0,
        -4.239701209886223e-07,
        -5.070034400244616e-07,
        15.119877815246566,
        0.0,
        113.43922424316406,
        213.3074951171875,
        100.74087524414063,
        1.0
      ],
      "name": "Slp"
    },
    {
      "mesh": 4,
      "name": "Slp_SLP_0"
    }
  ],
  "samplers": [
    {
      "magFilter": 9729,
      "minFilter": 9987,
      "wrapS": 10497,
      "wrapT": 10497
    }
  ],
  "scene": 0,
  "scenes": [
    {
      "name": "Sketchfab_Scene",
      "nodes": [
        0
      ]
    }
  ],
  "textures": [
    {
      "sampler": 0,
      "source": 0
    },
    {
      "sampler": 0,
      "source": 1
    }
  ]
}
